<svg width="20" height="20" viewBox="0 0 20 20" fill="none" xmlns="http://www.w3.org/2000/svg">
<g clip-path="url(#clip0_1_2)">
<mask id="mask0_1_2" style="mask-type:luminance" maskUnits="userSpaceOnUse" x="0" y="0" width="20" height="20">
<path d="M0 0H20V20H0V0Z" fill="white"/>
</mask>
<g mask="url(#mask0_1_2)">
<path d="M7.2635 3.586C7.62942 2.80988 8.10328 2.08941 8.671 1.446C8.987 1.116 10.021 0.613003 10.629 1.1635C11.0907 1.63745 11.52 2.14192 11.914 2.6735C12.3315 3.18467 12.7149 3.72284 13.0615 4.2845C13.6791 5.18204 14.1946 6.14566 14.5985 7.1575C14.6576 7.44861 14.6248 7.75087 14.5048 8.02259C14.3848 8.2943 14.1834 8.52208 13.9285 8.6745C13.6879 8.85024 13.3977 8.94496 13.0997 8.94496C12.8018 8.94496 12.5116 8.85024 12.271 8.6745C11.8468 8.2653 11.4596 7.8194 11.114 7.342C11.0367 7.25034 10.9613 7.157 10.888 7.062C10.8987 7.22508 10.8672 7.38817 10.7965 7.5355C10.5095 8.1005 9.3175 8.871 9.1065 9.0055C8.54451 9.37176 7.93791 9.66448 7.3015 9.8765C7.1115 9.919 6.9125 9.8945 6.738 9.8075C6.456 9.6665 6.034 9.1175 5.908 8.8385C5.70554 8.19844 5.58343 7.53569 5.5445 6.8655C5.415 5.0465 5.736 4.63 5.736 4.63C5.80978 4.4708 5.93477 4.34091 6.09101 4.26107C6.24726 4.18122 6.42575 4.15603 6.598 4.1895C6.71566 4.20417 6.83033 4.23134 6.942 4.271C6.997 4.164 7.052 4.043 7.107 3.921C7.1585 3.8075 7.21 3.692 7.2635 3.586ZM11.087 16.675C10.9672 16.4904 10.8888 16.282 10.8572 16.0642C10.8257 15.8464 10.8417 15.6243 10.9043 15.4133C10.9668 15.2023 11.0744 15.0074 11.2195 14.8419C11.3646 14.6765 11.5439 14.5445 11.745 14.455C12.3202 14.3255 12.9056 14.2459 13.4945 14.217C13.4119 14.1386 13.3427 14.0472 13.2895 13.9465C13.0745 13.5385 13.1955 12.2015 13.1955 11.625C13.2 10.962 13.287 10.303 13.454 9.6615C13.5223 9.47107 13.6562 9.31116 13.8316 9.21039C14.007 9.10963 14.2126 9.07457 14.4115 9.1115C15.0565 9.291 15.6775 9.55 16.2595 9.882C16.93 10.2605 18.158 10.976 18.462 11.8205C18.649 12.1255 18.608 12.5185 18.3615 12.778C18.283 12.8686 18.1965 12.9519 18.103 13.027L18.1365 13.0795C18.26 13.2735 18.386 13.471 18.4955 13.669C18.95 14.3971 19.2967 15.1871 19.525 16.0145C19.625 16.431 19.501 17.5845 18.6485 17.7955C17.5849 18.0069 16.5011 18.1 15.417 18.073C14.3314 18.0999 13.2462 18.0068 12.181 17.7955C11.728 17.5945 11.354 17.0855 11.0875 16.6745L11.087 16.675ZM5.3865 9.973C5.13744 9.81074 4.84334 9.73165 4.5465 9.74711C4.24965 9.76256 3.96535 9.87176 3.7345 10.059C3.01765 10.874 2.39458 11.7669 1.877 12.721C1.30654 13.6482 0.840851 14.636 0.488496 15.666C0.244496 16.4675 1.312 17.6595 2.04 17.873C2.86909 18.0906 3.72526 18.1872 4.582 18.16H5.081C5.2325 18.391 5.505 18.775 5.716 18.928C5.858 19.031 6.03 19.0845 6.205 19.079C6.205 19.079 6.718 19.1745 8.2835 18.241C8.86361 17.9042 9.39785 17.494 9.873 17.0205C10.0054 16.8686 10.0784 16.674 10.0785 16.4725C10.0785 16.057 9.6955 15.66 9.437 15.3645C8.96854 14.8859 8.44075 14.4692 7.8665 14.1245C7.68 14.0125 6.736 13.4605 6.0705 13.316C6.26852 12.8938 6.43676 12.4582 6.574 12.0125C6.62306 11.7179 6.57664 11.4153 6.4415 11.149C6.239 10.7515 5.7835 10.1725 5.3865 9.974V9.973Z" fill="black"/>
<path d="M7.2635 3.586C7.62942 2.80988 8.10328 2.08941 8.671 1.446C8.987 1.116 10.021 0.613003 10.629 1.1635C11.0907 1.63745 11.52 2.14192 11.914 2.6735C12.3315 3.18467 12.7149 3.72284 13.0615 4.2845C13.6791 5.18204 14.1946 6.14566 14.5985 7.1575C14.6576 7.44861 14.6248 7.75087 14.5048 8.02259C14.3848 8.2943 14.1834 8.52208 13.9285 8.6745C13.6879 8.85024 13.3977 8.94496 13.0997 8.94496C12.8018 8.94496 12.5116 8.85024 12.271 8.6745C11.8468 8.2653 11.4596 7.8194 11.114 7.342C11.0367 7.25034 10.9613 7.157 10.888 7.062C10.8987 7.22508 10.8672 7.38817 10.7965 7.5355C10.5095 8.1005 9.3175 8.871 9.1065 9.0055C8.54451 9.37176 7.93791 9.66448 7.3015 9.8765C7.1115 9.919 6.9125 9.8945 6.738 9.8075C6.456 9.6665 6.034 9.1175 5.908 8.8385C5.70554 8.19844 5.58343 7.53569 5.5445 6.8655C5.415 5.0465 5.736 4.63 5.736 4.63C5.80978 4.4708 5.93477 4.34091 6.09101 4.26107C6.24726 4.18122 6.42575 4.15603 6.598 4.1895C6.71566 4.20417 6.83033 4.23134 6.942 4.271C6.997 4.164 7.052 4.043 7.107 3.921C7.1585 3.8075 7.21 3.692 7.2635 3.586ZM11.087 16.675C10.9672 16.4904 10.8888 16.282 10.8572 16.0642C10.8257 15.8464 10.8417 15.6243 10.9043 15.4133C10.9668 15.2023 11.0744 15.0074 11.2195 14.8419C11.3646 14.6765 11.5439 14.5445 11.745 14.455C12.3202 14.3255 12.9056 14.2459 13.4945 14.217C13.4119 14.1386 13.3427 14.0472 13.2895 13.9465C13.0745 13.5385 13.1955 12.2015 13.1955 11.625C13.2 10.962 13.287 10.303 13.454 9.6615C13.5223 9.47107 13.6562 9.31116 13.8316 9.21039C14.007 9.10963 14.2126 9.07457 14.4115 9.1115C15.0565 9.291 15.6775 9.55 16.2595 9.882C16.93 10.2605 18.158 10.976 18.462 11.8205C18.649 12.1255 18.608 12.5185 18.3615 12.778C18.283 12.8686 18.1965 12.9519 18.103 13.027L18.1365 13.0795C18.26 13.2735 18.386 13.471 18.4955 13.669C18.95 14.3971 19.2967 15.1871 19.525 16.0145C19.625 16.431 19.501 17.5845 18.6485 17.7955C17.5849 18.0069 16.5011 18.1 15.417 18.073C14.3314 18.0999 13.2462 18.0068 12.181 17.7955C11.728 17.5945 11.354 17.0855 11.0875 16.6745L11.087 16.675ZM5.3865 9.973C5.13744 9.81074 4.84334 9.73165 4.5465 9.74711C4.24965 9.76256 3.96535 9.87176 3.7345 10.059C3.01765 10.874 2.39458 11.7669 1.877 12.721C1.30654 13.6482 0.840851 14.636 0.488496 15.666C0.244496 16.4675 1.312 17.6595 2.04 17.873C2.86909 18.0906 3.72526 18.1872 4.582 18.16H5.081C5.2325 18.391 5.505 18.775 5.716 18.928C5.858 19.031 6.03 19.0845 6.205 19.079C6.205 19.079 6.718 19.1745 8.2835 18.241C8.86361 17.9042 9.39785 17.494 9.873 17.0205C10.0054 16.8686 10.0784 16.674 10.0785 16.4725C10.0785 16.057 9.6955 15.66 9.437 15.3645C8.96854 14.8859 8.44075 14.4692 7.8665 14.1245C7.68 14.0125 6.736 13.4605 6.0705 13.316C6.26852 12.8938 6.43676 12.4582 6.574 12.0125C6.62306 11.7179 6.57664 11.4153 6.4415 11.149C6.239 10.7515 5.7835 10.1725 5.3865 9.974V9.973Z" stroke="black" stroke-width="0.5" stroke-miterlimit="10"/>
<path d="M19.089 15.455C18.8609 14.6275 18.5143 13.8373 18.06 13.109C17.94 12.8935 17.801 12.6785 17.667 12.4675C17.761 12.3925 17.8472 12.3095 17.9255 12.2185C18.0455 12.0922 18.1205 11.9299 18.1387 11.7566C18.1568 11.5833 18.1172 11.4089 18.026 11.2605C17.839 10.9555 17.854 10.7825 16.2595 9.8825C15.6775 9.55052 15.0568 9.29156 14.4115 9.1115C14.2126 9.07467 14.0071 9.10977 13.8317 9.21053C13.6563 9.31128 13.5224 9.47113 13.454 9.6615C13.2868 10.3028 13.2 10.9623 13.1955 11.625C13.1955 11.8785 13.1955 13.2955 13.507 13.846C13.5995 14.002 13.7355 14.127 13.899 14.206C13.174 14.212 12.452 14.296 11.745 14.4545C10.6745 14.931 10.521 16.388 11.469 17.077C11.5557 17.1397 11.6477 17.1927 11.745 17.236C12.8101 17.4475 13.8954 17.5407 14.981 17.514C16.0651 17.5408 17.1489 17.4476 18.2125 17.236C19.065 17.0255 19.19 15.872 19.089 15.455Z" fill="#0BD674" stroke="black" stroke-width="0.5" stroke-miterlimit="10"/>
<path d="M13.507 13.832C13.5894 13.9886 13.7217 14.1132 13.8829 14.1861C14.0441 14.259 14.225 14.276 14.397 14.2345C14.5126 14.2089 14.6262 14.1752 14.737 14.1335C14.852 14.3585 14.977 14.5835 15.096 14.7945" stroke="black" stroke-width="0.5" stroke-miterlimit="10" stroke-linecap="round"/>
<path d="M8.671 1.4455C8.10321 2.08922 7.62935 2.81003 7.2635 3.5865C7.153 3.8065 7.048 4.065 6.9425 4.271C6.83076 4.23153 6.7151 4.2042 6.5975 4.1895C6.42532 4.15599 6.24687 4.18111 6.09063 4.26086C5.93439 4.34061 5.80937 4.4704 5.7355 4.6295C5.584 4.957 5.415 5.0465 5.544 6.8655C5.5835 7.5355 5.7055 8.1985 5.909 8.8385C5.98918 9.01614 6.12813 9.16071 6.30245 9.24787C6.47676 9.33502 6.67579 9.35944 6.866 9.317C7.50241 9.10498 8.10902 8.81226 8.671 8.446C8.882 8.312 10.074 7.541 10.361 6.976C10.439 6.812 10.469 6.6295 10.447 6.449C10.848 7.05321 11.3136 7.61199 11.8355 8.1155C12.076 8.29101 12.366 8.38559 12.6638 8.38559C12.9615 8.38559 13.2515 8.29101 13.492 8.1155C13.747 7.96305 13.9485 7.73519 14.0685 7.46337C14.1885 7.19155 14.2212 6.88918 14.162 6.598C13.7583 5.58619 13.2429 4.62256 12.6255 3.725C12.0563 2.80028 11.3868 1.94125 10.629 1.1635C10.021 0.613003 8.987 1.1155 8.671 1.4455Z" fill="#0BD674" stroke="black" stroke-width="0.5" stroke-miterlimit="10"/>
<path d="M10.38 6.995C10.4636 6.84113 10.4944 6.66409 10.4676 6.49103C10.4409 6.31798 10.3581 6.15848 10.232 6.037C10.1466 5.95393 10.0554 5.87707 9.959 5.807C10.083 5.587 10.208 5.3625 10.318 5.147" stroke="black" stroke-width="0.5" stroke-miterlimit="10" stroke-linecap="round"/>
<path d="M1.6045 17.3125C2.433 17.5305 3.2895 17.627 4.1465 17.6H4.903C4.91967 17.7187 4.94683 17.8352 4.9845 17.9495C5.0341 18.1178 5.13799 18.265 5.27998 18.3681C5.42198 18.4712 5.59409 18.5244 5.7695 18.5195C6.13 18.509 6.2815 18.6145 7.8475 17.6815C8.42764 17.3446 8.96188 16.9342 9.437 16.4605C9.56972 16.3087 9.64286 16.1139 9.64286 15.9123C9.64286 15.7106 9.56972 15.5158 9.437 15.364C8.96854 14.8854 8.44075 14.4686 7.8665 14.124C7.6515 13.995 6.43 13.2815 5.7885 13.2815C5.60775 13.2848 5.43169 13.3396 5.281 13.4395C5.63845 12.8103 5.92583 12.1438 6.138 11.452C6.18674 11.1576 6.1401 10.8553 6.00491 10.5892C5.86972 10.3231 5.65305 10.1072 5.3865 9.973C5.13758 9.81037 4.84341 9.73105 4.54647 9.74651C4.24953 9.76197 3.96519 9.8714 3.7345 10.059C3.01765 10.874 2.39458 11.7669 1.877 12.721C1.30655 13.6482 0.840857 14.6359 0.488502 15.666C0.235002 16.4995 1.1635 17.184 1.6035 17.313L1.6045 17.3125Z" fill="#0BD674" stroke="black" stroke-width="0.5" stroke-miterlimit="10"/>
<path d="M5.77899 13.2815C5.60359 13.2766 5.43147 13.3298 5.28947 13.4329C5.14748 13.536 5.04359 13.6832 4.99399 13.8515C4.95738 13.9654 4.93012 14.0821 4.91249 14.2005C4.65899 14.2005 4.40499 14.1765 4.15649 14.1765" stroke="black" stroke-width="0.5" stroke-miterlimit="10" stroke-linecap="round"/>
</g>
</g>
<defs>
<clipPath id="clip0_1_2">
<rect width="20" height="20" fill="white"/>
</clipPath>
</defs>
</svg>
